# xmcd
#
# Track frame offsets:
#	150
#	20472
#	50364
#	75652
#	97582
#	119284
#	135462
#	174041
#	203406
#	219880
#	237714
#	257834
#
# Disc length: 3753 seconds
#
# Revision: 1
# Processed by: cddbd v1.5.2PL0 Copyright (c) Steve Scherf et al.
# Submitted via: audiograbber 1.83.01
#
DISCID=8d0ea70c
DTITLE=Various Artist - Bob Dylan All Blues'd Up
DYEAR=2003
DGENRE=Blues
TTITLE0=Taj Mahal - It Takes A Lot To Laugh
TTITLE1=Mavis Staples - Gotta Serve Somebody
TTITLE2=Isaac Hayes - Lay Lady Lay
TTITLE3=RL Burnside - Everything Is Broken
TTITLE4=Luther Johnson - Pledging My Time
TTITLE5=John Hammond - I'll Be Your Baby Tonight
TTITLE6=James Solberg - Ballad Of A Thin Man
TTITLE7=Alvin Hart - Million Miles
TTITLE8=Leon Russell - Watching The River Flow
TTITLE9=The Holmes Brothers - Wallflower
TTITLE10=Larry McCay - All Along The Watchtower
TTITLE11=The Band - One Too Many Mornings
EXTD=YEAR: 2003
EXTT0=
EXTT1=
EXTT2=
EXTT3=
EXTT4=
EXTT5=
EXTT6=
EXTT7=
EXTT8=
EXTT9=
EXTT10=
EXTT11=
PLAYORDER=
